<svg xmlns="http://www.w3.org/2000/svg" width="640" height="400" viewBox="0 0 640 400">
  <rect width="640" height="400" fill="#fff"/>
  <!-- 13 stripes -->
  <g fill="#b22234">
    <rect y="0" width="640" height="30"/>
    <rect y="60" width="640" height="30"/>
    <rect y="120" width="640" height="30"/>
    <rect y="180" width="640" height="30"/>
    <rect y="240" width="640" height="30"/>
    <rect y="300" width="640" height="30"/>
    <rect y="360" width="640" height="40"/>
  </g>
  <!-- blue canton -->
  <rect x="0" y="0" width="256" height="210" fill="#3c3b6e"/>
  <!-- simplified stars grid -->
  <g fill="#fff" transform="translate(16,16)">
    <!-- 6x5 grid of small circles to emulate stars -->
    <g>
      <circle cx="0" cy="0" r="4"/>
      <circle cx="32" cy="0" r="4"/>
      <circle cx="64" cy="0" r="4"/>
      <circle cx="96" cy="0" r="4"/>
      <circle cx="128" cy="0" r="4"/>
      <circle cx="160" cy="0" r="4"/>
    </g>
    <g transform="translate(0,24)">
      <circle cx="16" cy="0" r="4"/>
      <circle cx="48" cy="0" r="4"/>
      <circle cx="80" cy="0" r="4"/>
      <circle cx="112" cy="0" r="4"/>
      <circle cx="144" cy="0" r="4"/>
    </g>
    <g transform="translate(0,48)">
      <circle cx="0" cy="0" r="4"/>
      <circle cx="32" cy="0" r="4"/>
      <circle cx="64" cy="0" r="4"/>
      <circle cx="96" cy="0" r="4"/>
      <circle cx="128" cy="0" r="4"/>
      <circle cx="160" cy="0" r="4"/>
    </g>
    <g transform="translate(0,72)">
      <circle cx="16" cy="0" r="4"/>
      <circle cx="48" cy="0" r="4"/>
      <circle cx="80" cy="0" r="4"/>
      <circle cx="112" cy="0" r="4"/>
      <circle cx="144" cy="0" r="4"/>
    </g>
    <g transform="translate(0,96)">
      <circle cx="0" cy="0" r="4"/>
      <circle cx="32" cy="0" r="4"/>
      <circle cx="64" cy="0" r="4"/>
      <circle cx="96" cy="0" r="4"/>
      <circle cx="128" cy="0" r="4"/>
      <circle cx="160" cy="0" r="4"/>
    </g>
    <g transform="translate(0,120)">
      <circle cx="16" cy="0" r="4"/>
      <circle cx="48" cy="0" r="4"/>
      <circle cx="80" cy="0" r="4"/>
      <circle cx="112" cy="0" r="4"/>
      <circle cx="144" cy="0" r="4"/>
    </g>
    <g transform="translate(0,144)">
      <circle cx="0" cy="0" r="4"/>
      <circle cx="32" cy="0" r="4"/>
      <circle cx="64" cy="0" r="4"/>
      <circle cx="96" cy="0" r="4"/>
      <circle cx="128" cy="0" r="4"/>
      <circle cx="160" cy="0" r="4"/>
    </g>
  </g>
</svg>